# xmcd
#
# Track frame offsets:
#	150
#	11409
#	34705
#	45962
#	55710
#	66728
#	86558
#	98964
#	109878
#	118144
#	129587
#	144985
#	157184
#	172788
#	187202
#	202957
#
# Disc length: 2844 seconds
#
# Revision: 1
# Processed by: cddbd v1.5.2PL0 Copyright (c) Steve Scherf et al.
# Submitted via: audiograbber 1.83.01
#
DISCID=dd0b1a10
DTITLE=Bloody Ol' Mule - Satan's Farm
DYEAR=2006
DGENRE=Blues country
TTITLE0=BBQ Song
TTITLE1=Gonna Lay You On Out
TTITLE2=Two Fisted Drinkin'
TTITLE3=Black Balled Peter
TTITLE4=Straight From Hell
TTITLE5=Daughter, Oh Daughter
TTITLE6=How Come You Gotta Be So Mean
TTITLE7=Devil's Wings
TTITLE8=So Long Little Darlin'
TTITLE9=Noah's Flood
TTITLE10=Eyes of Deceit
TTITLE11=Up Jump the Devil
TTITLE12=Fire in the Hole
TTITLE13=Sarah Jane
TTITLE14=Satan's Farm
TTITLE15=The Winslow Boy
EXTD=www.myspace.com/bloodyolmule
EXTT0=
EXTT1=
EXTT2=
EXTT3=
EXTT4=
EXTT5=
EXTT6=
EXTT7=
EXTT8=
EXTT9=
EXTT10=
EXTT11=
EXTT12=
EXTT13=
EXTT14=
EXTT15=
PLAYORDER=
